<?xml version="1.0" encoding="utf-8"?>
<!-- Generator: Adobe Illustrator 13.0.0, SVG Export Plug-In . SVG Version: 6.00 Build 14948)  -->
<!DOCTYPE svg PUBLIC "-//W3C//DTD SVG 1.1//EN" "http://www.w3.org/Graphics/SVG/1.1/DTD/svg11.dtd">
<svg version="1.1" id="Layer_1" xmlns="http://www.w3.org/2000/svg" xmlns:xlink="http://www.w3.org/1999/xlink" x="0px" y="0px"
	 width="1247.654px" height="298px" viewBox="0 0 1247.654 298" enable-background="new 0 0 1247.654 298" xml:space="preserve">
<g>
	<path fill="#312D70" d="M1201.104,298v-83.332c0-13.715-2.415-23.482-7.242-29.301c-4.829-5.818-12.552-8.729-23.173-8.729h-16.136
		V298H1108V0h70.241c23.825,0,41.279,5.611,52.367,16.833c11.089,11.222,16.634,28.47,16.634,51.745V92.06
		c0,30.62-10.158,50.777-30.47,60.473c11.117,4.711,19.045,12.332,23.78,22.859c4.733,10.529,7.102,24.037,7.102,40.522V298
		H1201.104z M1154.553,134.246h18.206c9.239,0,16.205-2.39,20.896-7.169c4.688-4.78,7.034-12.917,7.034-24.418V73.357
		c0-10.666-1.862-18.459-5.585-23.379c-3.726-4.916-9.725-7.377-18.001-7.377h-22.551V134.246z"/>
	<path fill="#312D70" d="M941,298V0h128v42.601h-81.096v83.124h64.418v42.394h-64.418v87.279H1069V298H941z"/>
	<path fill="#312D70" d="M761,42.601V0h146v42.601h-49.436V298h-47.129V42.601H761z"/>
	<path fill="#312D70" d="M597,298V0h68.586c22.997,0,40.319,6.306,51.957,18.911C729.181,31.519,735,49.807,735,73.773v38.652
		c0,23.97-5.816,42.221-17.444,54.758c-11.631,12.54-28.937,18.807-51.915,18.807h-22.089V298H597z M643.552,143.597h22.138
		c7.723,0,13.449-2.146,17.172-6.442c3.726-4.292,5.587-11.566,5.587-21.82V70.656c0-10.251-1.861-17.489-5.587-21.716
		c-3.723-4.225-9.449-6.338-17.172-6.338h-22.138V143.597z"/>
	<path fill="#312D70" d="M396,298L443.116,0h71.768L562,298h-46.455l-8.092-54.031h-56.95L442.455,298H396z M456.546,203.446h44.833
		L478.897,53.439L456.546,203.446z"/>
	<path fill="#00D385" d="M352.416,18.91C340.691,6.306,323.247,0,300.081,0H226v70.104h-42v42h42v74h-42v42h42V298h74.081
		c23.166,0,40.61-6.267,52.335-18.807C364.138,266.656,370,248.404,370,224.435V73.772C370,49.807,364.138,31.519,352.416,18.91z
		 M323.179,226.513c0,10.255-2.049,17.632-6.139,22.132c-4.093,4.504-10.024,6.754-17.792,6.754h-26.428V42.601h26.428
		c7.768,0,13.698,2.254,17.792,6.754c4.09,4.504,6.139,11.881,6.139,22.132V226.513z"/>
	<path fill="#312D70" d="M0,298L47.116,0h71.768L166,298h-46.455l-8.091-54.031h-56.95L46.455,298H0z M60.546,203.446h44.833
		L82.896,53.439L60.546,203.446z"/>
</g>
</svg>
